<svg xmlns="http://www.w3.org/2000/svg" viewBox="1323.30 542.87 80.38 80.38" width="48" height="48" fill="none"><path fill-rule="evenodd" clip-rule="evenodd" d="M1363.48 561.74C1359.9 558.197 1354.83 556.203 1349.32 556.823C1341.2 557.744 1334.68 564.523 1333.89 572.808C1333.3 578.927 1335.74 584.504 1339.85 588.146L1362.85 609.584C1363.21 609.92 1363.77 609.92 1364.13 609.584L1387.12 588.146C1391.23 584.504 1393.68 578.927 1393.09 572.808C1392.3 564.523 1385.78 557.744 1377.66 556.823C1372.15 556.203 1367.06 558.196 1363.48 561.74ZM1349.53 558.686C1354.77 558.096 1359.56 560.153 1362.78 563.724C1362.96 563.921 1363.21 564.034 1363.48 564.034C1363.74 564.034 1363.99 563.921 1364.17 563.724C1367.39 560.154 1372.2 558.096 1377.45 558.686C1384.66 559.504 1390.51 565.554 1391.22 572.987L1391.22 572.988C1391.75 578.493 1389.55 583.492 1385.87 586.75L1385.85 586.767L1363.49 607.617L1341.12 586.767L1341.11 586.75C1337.42 583.492 1335.22 578.493 1335.75 572.988L1335.76 572.987C1336.46 565.554 1342.32 559.504 1349.53 558.686Z" fill="#352EFF"></path></svg>