<svg xmlns="http://www.w3.org/2000/svg" viewBox="1068.49 417.02 70.00 70.00" width="48" height="48" fill="none"><path d="M1094.4 427.023H1078.8C1078.63 427.023 1078.49 427.163 1078.49 427.336V442.933M1112.58 427.023H1128.18C1128.35 427.023 1128.49 427.163 1128.49 427.336V442.933M1128.49 461.114V476.711C1128.49 476.884 1128.35 477.023 1128.18 477.023H1112.58M1094.4 477.023H1078.8C1078.63 477.023 1078.49 476.884 1078.49 476.711V461.114" stroke="#FF00FF" stroke-width="1.875"></path><path d="M1103.49 469.523C1113.15 469.523 1120.99 461.688 1120.99 452.023C1120.99 442.358 1113.15 434.523 1103.49 434.523C1093.82 434.523 1085.99 442.358 1085.99 452.023C1085.99 461.688 1093.82 469.523 1103.49 469.523Z" stroke="#352EFF" stroke-width="1.875"></path></svg>